<svg xmlns="http://www.w3.org/2000/svg" width="1440" height="900" viewBox="0 0 1440 900" fill="none">
  <rect width="1440" height="900" fill="#EEF4F8"/>
  <defs>
    <linearGradient id="hero" x1="0" y1="0" x2="1440" y2="900" gradientUnits="userSpaceOnUse">
      <stop stop-color="#FFF2BF"/>
      <stop offset="1" stop-color="#EEF4F8"/>
    </linearGradient>
  </defs>
  <rect x="40" y="32" width="1360" height="836" rx="30" fill="url(#hero)" stroke="#D6E1EA"/>
  <text x="88" y="100" fill="#0F766E" font-family="IBM Plex Sans, Arial, sans-serif" font-size="24" font-weight="700">IW3IP Phase 3</text>
  <text x="88" y="150" fill="#14213D" font-family="IBM Plex Sans, Arial, sans-serif" font-size="54" font-weight="700">Regional Safety Assistant Demo</text>
  <text x="88" y="192" fill="#3B556F" font-family="IBM Plex Sans, Arial, sans-serif" font-size="22">Human request -&gt; planner -&gt; diagnostics badge -&gt; execution result</text>

  <rect x="82" y="236" width="1276" height="210" rx="24" fill="white" fill-opacity="0.9" stroke="#D6E1EA"/>
  <text x="110" y="276" fill="#1A3655" font-family="IBM Plex Sans, Arial, sans-serif" font-size="20" font-weight="700">Assistant API Base URL</text>
  <rect x="110" y="290" width="470" height="52" rx="14" fill="#F8FBFF" stroke="#C7D6E3"/>
  <text x="132" y="323" fill="#14213D" font-family="IBM Plex Sans, Arial, sans-serif" font-size="20">http://localhost:8090</text>
  <text x="650" y="276" fill="#1A3655" font-family="IBM Plex Sans, Arial, sans-serif" font-size="20" font-weight="700">Quick Templates</text>
  <rect x="650" y="290" width="190" height="52" rx="26" fill="#D7E6F5"/>
  <text x="687" y="323" fill="#153A5B" font-family="IBM Plex Sans, Arial, sans-serif" font-size="18" font-weight="700">Park Safety (JA)</text>
  <rect x="858" y="290" width="220" height="52" rx="26" fill="#D7E6F5"/>
  <text x="889" y="323" fill="#153A5B" font-family="IBM Plex Sans, Arial, sans-serif" font-size="18" font-weight="700">Station Warning (EN)</text>
  <text x="110" y="380" fill="#1A3655" font-family="IBM Plex Sans, Arial, sans-serif" font-size="20" font-weight="700">Request Text</text>
  <rect x="110" y="394" width="1218" height="34" rx="14" fill="#F8FBFF" stroke="#C7D6E3"/>
  <text x="130" y="416" fill="#14213D" font-family="IBM Plex Sans, Arial, sans-serif" font-size="17">公園北側でポイ捨てや危険行動が増えていたら教えて。必要なら照明をつけて管理者に通知して。</text>

  <rect x="82" y="472" width="1276" height="122" rx="24" fill="white" fill-opacity="0.9" stroke="#D6E1EA"/>
  <rect x="110" y="510" width="230" height="52" rx="26" fill="#0F766E"/>
  <text x="151" y="543" fill="white" font-family="IBM Plex Sans, Arial, sans-serif" font-size="18" font-weight="700">POST /assistant/plan</text>
  <rect x="358" y="510" width="250" height="52" rx="26" fill="#0F766E"/>
  <text x="391" y="543" fill="white" font-family="IBM Plex Sans, Arial, sans-serif" font-size="18" font-weight="700">POST /assistant/execute</text>
  <rect x="626" y="510" width="280" height="52" rx="26" fill="#D7E6F5"/>
  <text x="660" y="543" fill="#153A5B" font-family="IBM Plex Sans, Arial, sans-serif" font-size="18" font-weight="700">GET /assistant/executions</text>

  <rect x="82" y="620" width="1276" height="132" rx="24" fill="white" fill-opacity="0.9" stroke="#D6E1EA"/>
  <text x="110" y="658" fill="#14213D" font-family="IBM Plex Sans, Arial, sans-serif" font-size="28" font-weight="700">Planner Diagnostics</text>
  <rect x="1160" y="636" width="96" height="38" rx="19" fill="#E8F7EE"/>
  <text x="1194" y="661" fill="#146C43" font-family="IBM Plex Sans, Arial, sans-serif" font-size="18" font-weight="700">OK</text>
  <rect x="110" y="682" width="1218" height="48" rx="16" fill="#EEF8F1" stroke="#B7E0C5"/>
  <text x="132" y="712" fill="#146C43" font-family="IBM Plex Sans, Arial, sans-serif" font-size="18">code=llm_plan_generated / category=success / severity=info</text>

  <rect x="82" y="776" width="620" height="72" rx="24" fill="#132032"/>
  <text x="110" y="820" fill="#E8F1FF" font-family="IBM Plex Mono, monospace" font-size="20">Plan Result JSON</text>
  <rect x="738" y="776" width="620" height="72" rx="24" fill="#132032"/>
  <text x="766" y="820" fill="#E8F1FF" font-family="IBM Plex Mono, monospace" font-size="20">Execution Result / History JSON</text>
</svg>
